# xmcd
#
# Track frame offsets:
#	150
#	25231
#	45363
#	86611
#	96977
#	135361
#	146744
#	164485
#	195784
#	203354
#	226141
#
# Disc length: 3396
#
# Revision: 1
# Processed by: cddbd v1.5.1PL0 Copyright (c) Steve Scherf et al.
# Submitted via: CDex 1.51
# Normalized: r0:TRMNUM
#
DISCID=800d420b
DTITLE=Jef Sicard - Ohlik
DYEAR=2001
DGENRE=Jazz
TTITLE0=Safran
TTITLE1=In extremis
TTITLE2=Tenderness
TTITLE3=In memoriam
TTITLE4=Avec elle
TTITLE5=Incidences
TTITLE6=Sous le voile
TTITLE7=Trapèze
TTITLE8=Les deux F
TTITLE9=Le miroir des sirènes
TTITLE10=Roseau penché
EXTD=YEAR: 2001
EXTT0=
EXTT1=
EXTT2=
EXTT3=
EXTT4=
EXTT5=
EXTT6=
EXTT7=
EXTT8=
EXTT9=
EXTT10=
PLAYORDER=
